<?xml version="1.0" encoding="UTF-8"?>
<svg version="1.1" xmlns="http://www.w3.org/2000/svg" width="538" height="539">
<path d="M0 0 C0.80583994 -0.00380567 1.61167988 -0.00761134 2.4419392 -0.01153234 C5.15326952 -0.0218723 7.86439141 -0.0179375 10.57573605 -0.01409245 C12.53490607 -0.01854356 14.49407429 -0.02385718 16.45323986 -0.02996117 C21.8459387 -0.04416711 27.23857997 -0.04580397 32.63129485 -0.04536426 C38.44404556 -0.04701021 44.2567724 -0.06007266 50.06951046 -0.07155704 C62.7844903 -0.09442454 75.49945346 -0.1023297 88.21445107 -0.10738349 C96.15302705 -0.11063881 104.09159817 -0.11716033 112.03017139 -0.12438488 C134.0072469 -0.14395394 155.98431808 -0.16043735 177.96140289 -0.16326141 C179.01591607 -0.16340251 179.01591607 -0.16340251 180.09173254 -0.16354645 C182.9407074 -0.16392493 185.78968226 -0.16428892 188.63865713 -0.16464943 C190.78296155 -0.16492114 192.92726597 -0.16519782 195.0715704 -0.16547489 C196.13441277 -0.16560693 196.13441277 -0.16560693 197.2187267 -0.16574163 C219.47407567 -0.16864603 241.72933773 -0.19073179 263.98465633 -0.22699833 C288.98945072 -0.26774429 313.99418588 -0.29142013 338.99901527 -0.29172093 C352.2377949 -0.29220142 365.47646741 -0.30080899 378.71521854 -0.32971859 C389.98911751 -0.35422407 401.26286387 -0.36152096 412.53678227 -0.34647106 C418.28814711 -0.33929859 424.03921054 -0.34017459 429.79054165 -0.36288166 C435.05930364 -0.38348396 440.32753273 -0.38085911 445.59628903 -0.36000682 C447.4987671 -0.35651434 449.40128371 -0.36141157 451.30371124 -0.37571125 C464.13733415 -0.46593131 475.71650471 0.25976864 485.48441219 9.76006222 C486.64456844 10.85834347 486.64456844 10.85834347 487.82816219 11.97881222 C491.22103355 15.56837177 494.14405366 19.04505766 496.17191219 23.57256222 C496.49546688 24.26994503 496.81902157 24.96732784 497.15238094 25.68584347 C499.11053684 31.74417557 499.13075337 38.1542464 499.11025333 44.46855831 C499.11170677 45.25879768 499.11316022 46.04903706 499.1146577 46.86322308 C499.11829846 49.50333492 499.11484023 52.14338833 499.11139584 54.78349972 C499.11254841 56.69861029 499.11413686 58.61372064 499.11612308 60.52883053 C499.12029762 65.78564706 499.11823415 71.04244545 499.11513686 76.29926205 C499.11287537 81.970767 499.11636612 87.64226882 499.11911678 93.31377316 C499.12356541 104.42199065 499.12260203 115.53020139 499.11970414 126.63841915 C499.11744656 135.66562105 499.11713913 144.69282106 499.11822796 153.72002316 C499.11845781 155.64658402 499.11845781 155.64658402 499.1186923 157.61206532 C499.11901202 160.22117519 499.11933624 162.83028507 499.11966489 165.43939495 C499.12243571 189.21230617 499.11956135 212.9852133 499.1143223 236.75812387 C499.10957675 258.45668863 499.11000138 280.15524751 499.11478329 301.85381222 C499.12013874 326.23635118 499.12224236 350.61888615 499.11917102 375.00142574 C499.11885247 377.60098425 499.1185381 380.20054277 499.11822796 382.80010128 C499.11807368 384.07916285 499.11791941 385.35822441 499.11776046 386.67604542 C499.11689672 395.69330963 499.11835511 404.71057176 499.12070751 413.72783566 C499.12351093 424.71553973 499.12275577 435.70323665 499.11742677 446.6909399 C499.1147971 452.29792836 499.11377231 457.9049049 499.11707592 463.51189327 C499.12005393 468.64384056 499.11842088 473.77576487 499.11309837 478.90771008 C499.11198063 480.7649359 499.11255115 482.62216366 499.11497416 484.47938824 C499.11801477 487.00347513 499.11489573 489.52748333 499.11025333 492.05156612 C499.1125945 492.77267952 499.11493567 493.49379292 499.11734778 494.23675823 C499.06882781 507.43568314 495.57080458 516.32973629 486.45316219 525.99443722 C478.68854331 533.12019506 470.3669124 536.57169556 459.85136318 536.52571106 C459.04496859 536.53011592 458.238574 536.53452079 457.40774322 536.53905913 C454.70053493 536.55138899 451.99352513 536.54950528 449.28629208 536.54767513 C447.3276838 536.55355925 445.36907793 536.5602984 443.41047525 536.56782001 C438.0239034 536.58590054 432.63738048 536.59141498 427.25078201 536.59480679 C421.44277758 536.60056305 415.63480459 536.61768871 409.82681942 536.63315487 C395.79873429 536.66791266 381.77065176 536.68349417 367.74253297 536.69727817 C361.13557103 536.70423971 354.52861223 536.71339646 347.92165279 536.72238636 C325.95741157 536.75159066 303.9931733 536.77644399 282.02891445 536.78701019 C280.60886358 536.78770658 279.18881271 536.78840425 277.76876184 536.78910321 C277.0645591 536.78944874 276.36035636 536.78979427 275.63481414 536.79015027 C272.06710202 536.79190366 268.49938992 536.79367502 264.93167782 536.79546261 C264.22366064 536.79581215 263.51564346 536.79616169 262.78617122 536.79652182 C239.83718778 536.8080418 216.88836855 536.84738478 193.93945298 536.90320892 C169.66539993 536.96214841 145.39144196 536.99553737 121.11731577 537.00002235 C107.88961554 537.00294402 94.66213526 537.01758906 81.43450069 537.06130314 C70.16943123 537.09842675 58.90465354 537.1115735 47.63953167 537.09359825 C41.89387496 537.08515197 36.14881389 537.08794586 30.40323544 537.12141705 C25.13732928 537.1518218 19.87245796 537.14956551 14.60654587 537.12192904 C12.70741936 537.11760139 10.80822012 537.12497241 8.90920073 537.14560205 C-5.16944591 537.28891019 -15.7077267 535.25516692 -26.51558781 525.44756222 C-34.32697173 516.79804697 -38.3383456 507.77918906 -38.27285671 496.05805492 C-38.27636279 495.2563612 -38.27986886 494.45466747 -38.28348118 493.62867999 C-38.29278177 490.94350236 -38.28787532 488.25854225 -38.28301334 485.57335567 C-38.28675028 483.62824634 -38.29135197 481.68313851 -38.29674399 479.73803306 C-38.30898406 474.39352521 -38.30871233 469.04907991 -38.30635524 463.70456123 C-38.30594733 457.94026568 -38.31698376 452.17599025 -38.32647038 446.41170406 C-38.34308686 435.11852356 -38.34858021 423.82536394 -38.34969513 412.53217223 C-38.35064529 403.35289114 -38.354754 394.17361695 -38.36109638 384.99433804 C-38.37584414 363.20675956 -38.38814592 341.41918644 -38.38709927 319.63160229 C-38.38706811 318.93493176 -38.38703695 318.23826123 -38.38700485 317.52047948 C-38.38683864 313.98953159 -38.38664055 310.4585837 -38.38643543 306.92763582 C-38.38639554 306.22638785 -38.38635565 305.52513987 -38.38631455 304.80264196 C-38.38623368 303.38454766 -38.38615008 301.96645336 -38.38606377 300.54835906 C-38.38483839 278.48739 -38.39984958 256.42648243 -38.4272089 234.36553097 C-38.45794079 209.57497988 -38.47511539 184.7844695 -38.47328246 159.99389815 C-38.47261831 146.86977422 -38.47812151 133.74571964 -38.49963856 120.6216116 C-38.51784083 109.44765811 -38.52220547 98.27380541 -38.50861971 87.09984353 C-38.50208533 81.39926148 -38.50199008 75.69887284 -38.51932621 69.99830914 C-38.53504079 64.77723448 -38.53220953 59.55650684 -38.51475795 54.33544073 C-38.51168453 52.44919332 -38.51533328 50.56292011 -38.5264781 48.67670313 C-38.60594037 34.2710587 -37.22697215 23.26685966 -27.01558781 12.26006222 C-19.34187126 4.63739035 -10.95252816 -0.0560714 0 0 Z M74.77347469 75.27568722 C64.39829956 75.8000643 54.97174216 81.86539912 47.98441219 89.26006222 C40.48580279 97.77011196 35.84730744 108.10451147 36.01956844 119.60771847 C36.23753202 121.85472482 36.58199086 124.03900603 36.98441219 126.26006222 C37.09784969 127.06185909 37.21128719 127.86365597 37.32816219 128.68974972 C39.28813934 140.78883942 45.673989 150.65418912 55.42191219 158.07256222 C66.09803998 165.06144948 77.41375248 167.34533597 89.98441219 165.26006222 C93.6411175 164.45357534 93.6411175 164.45357534 96.98441219 163.26006222 C98.22191219 162.90943722 99.45941219 162.55881222 100.73441219 162.19756222 C111.29929853 158.12782001 119.47679498 148.74214894 124.29691219 138.76006222 C127.5403223 130.86013801 127.21286434 122.66710105 126.98441219 114.26006222 C126.97667782 113.20818722 126.97667782 113.20818722 126.96878719 112.13506222 C126.39203853 102.24794229 119.9922661 92.88189028 112.98441219 86.26006222 C101.18980964 75.86727718 89.81139042 75.16941219 74.77347469 75.27568722 Z M303.98441219 197.26006222 C302.95316219 197.38381222 301.92191219 197.50756222 300.85941219 197.63506222 C296.781815 198.29273918 293.73198001 199.55064532 289.98441219 201.26006222 C288.12816219 201.87881222 288.12816219 201.87881222 286.23441219 202.51006222 C272.04897752 207.8568799 260.78381988 219.09646082 252.1052618 231.19609737 C251.10561012 232.58100737 250.04984043 233.92509337 248.98441219 235.26006222 C248.32441219 235.26006222 247.66441219 235.26006222 246.98441219 235.26006222 C246.98441219 224.37006222 246.98441219 213.48006222 246.98441219 202.26006222 C222.23441219 202.26006222 197.48441219 202.26006222 171.98441219 202.26006222 C171.98441219 286.08006222 171.98441219 369.90006222 171.98441219 456.26006222 C197.72441219 456.26006222 223.46441219 456.26006222 249.98441219 456.26006222 C250.03339657 446.00428097 250.08238094 435.74849972 250.13284969 425.18193722 C250.16824648 418.67411642 250.20413313 412.16630438 250.24222469 405.65849972 C250.30255798 395.33527809 250.36092497 385.01207288 250.40628719 374.68877316 C250.43933911 367.16908806 250.47924215 359.64947502 250.52720225 352.1298697 C250.55233671 348.15226191 250.57415569 344.17470112 250.58775616 340.19703579 C250.60069607 336.44432712 250.6228756 332.69178071 250.65179539 328.93916225 C250.66502507 326.92331752 250.66876944 324.90741732 250.67211056 322.89153194 C250.83710781 304.73960133 254.15740644 288.47146246 266.85941219 274.94756222 C275.7464777 266.43290708 285.90882808 264.8997843 297.79691219 264.88506222 C298.8262286 264.86057003 299.85554501 264.83607784 300.91605282 264.81084347 C311.70449977 264.7699006 319.30246251 267.81250057 327.08206844 275.26396847 C338.34184083 287.07863724 339.28111429 303.90185472 339.30325985 319.34844112 C339.31257509 320.84743944 339.32274609 322.34643265 339.33370113 323.84541988 C339.36083553 327.88601039 339.376101 331.92656635 339.38912916 335.96722364 C339.40483274 340.20064917 339.43159966 344.43400491 339.45716 348.66738033 C339.50382047 356.67102951 339.54062592 364.674692 339.57383287 372.67840707 C339.61931792 383.50290754 339.68014398 394.32732132 339.74008083 405.15174961 C339.83401072 422.18781021 339.90754514 439.2238963 339.98441219 456.26006222 C365.72441219 456.26006222 391.46441219 456.26006222 417.98441219 456.26006222 C418.0719245 426.8889805 418.0719245 426.8889805 418.13089657 397.51787472 C418.14864473 385.52727532 418.16942223 373.53673952 418.21073055 361.54619503 C418.24081081 352.81058568 418.26002899 344.0750283 418.26667768 335.33936858 C418.27055868 330.72203965 418.27955636 326.10485929 418.30160236 321.48757839 C418.46307178 294.73783797 418.46307178 294.73783797 414.98441219 268.26006222 C414.64815537 265.9271484 414.314155 263.59390566 413.98441219 261.26006222 C413.37460559 258.9908757 413.37460559 258.9908757 412.60941219 256.94756222 C411.50276303 253.82259578 410.57606194 250.71560478 409.73441219 247.51006222 C406.51750132 236.77591402 400.33785883 227.58806202 392.98441219 219.26006222 C392.46620907 218.63615597 391.94800594 218.01224972 391.41409969 217.36943722 C383.91439171 209.00292882 372.40524112 203.92196098 361.98441219 200.26006222 C361.01503719 199.88881222 360.04566219 199.51756222 359.04691219 199.13506222 C348.41454127 196.09724196 338.09296715 195.97863469 327.1196661 196.05425167 C324.33100088 196.07275069 321.54266422 196.07475924 318.75394344 196.07451534 C316.9844093 196.07942278 315.2148774 196.08524768 313.44534969 196.09209347 C312.19242626 196.0937627 312.19242626 196.0937627 310.91419125 196.09546566 C307.14280405 195.76297353 307.14280405 195.76297353 303.98441219 197.26006222 Z M42.98441219 202.26006222 C42.98441219 286.08006222 42.98441219 369.90006222 42.98441219 456.26006222 C68.72441219 456.26006222 94.46441219 456.26006222 120.98441219 456.26006222 C120.98441219 372.44006222 120.98441219 288.62006222 120.98441219 202.26006222 C95.24441219 202.26006222 69.50441219 202.26006222 42.98441219 202.26006222 Z " fill="#2867B1" transform="translate(38.01558780670166,-0.26006221771240234)"/>
<path d="M0 0 C0.66 0 1.32 0 2 0 C2.33 1.32 2.66 2.64 3 4 C1.02 4.99 1.02 4.99 -1 6 C-1.625 4.125 -1.625 4.125 -2 2 C-1.34 1.34 -0.68 0.68 0 0 Z " fill="#295285" transform="translate(286,230)"/>
<path d="M0 0 C0.66 0 1.32 0 2 0 C4 3 4 3 4 6 C3.34 6 2.68 6 2 6 C2 5.34 2 4.68 2 4 C0.68 4 -0.64 4 -2 4 C-2 3.34 -2 2.68 -2 2 C-1.34 2 -0.68 2 0 2 C0 1.34 0 0.68 0 0 Z " fill="#34629F" transform="translate(368,280)"/>
<path d="M0 0 C0.66 0.33 1.32 0.66 2 1 C1.34 2.98 0.68 4.96 0 7 C-1.32 7 -2.64 7 -4 7 C-2.92598892 4.08482708 -2.22189824 2.22189824 0 0 Z " fill="#3364A2" transform="translate(10,13)"/>
</svg>
